<svg width="45" height="45" viewBox="0 0 45 45" fill="none" xmlns="http://www.w3.org/2000/svg">
<path d="M34.5957 44.4397H10.4043C6.03154 44.4397 2.47473 41.4128 2.47473 37.6926C2.47473 36.9093 2.63115 36.1412 2.93816 35.4105C3.06306 35.1128 3.40508 34.9739 3.70275 35.0988C3.99925 35.2237 4.13932 35.5657 4.01442 35.8634C3.76695 36.4494 3.64205 37.0646 3.64205 37.6914C3.64205 40.7685 6.6759 43.2712 10.4043 43.2712H34.5946C38.323 43.2712 41.3568 40.7673 41.3568 37.6914C41.3568 37.0646 41.2319 36.4494 40.9845 35.8634C40.8596 35.5669 40.9985 35.2237 41.2961 35.0988C41.5926 34.9739 41.9358 35.1128 42.0607 35.4105C42.3689 36.1412 42.5241 36.9081 42.5241 37.6914C42.5253 41.4128 38.9673 44.4397 34.5957 44.4397Z" fill="#E94F35"/>
<path d="M39.8089 36.2206H5.19105C2.32879 36.2206 0 33.8918 0 31.0296V29.2868C0 27.2124 1.23035 25.3412 3.13541 24.5183C3.43191 24.391 3.7751 24.5264 3.90233 24.8229C4.02957 25.1194 3.89416 25.4626 3.59767 25.5899C2.12101 26.2272 1.16732 27.6782 1.16732 29.2856V31.0284C1.16732 33.2475 2.97198 35.0521 5.19105 35.0521H39.8089C42.028 35.0521 43.8327 33.2475 43.8327 31.0284V29.2856C43.8327 27.7097 42.9058 26.2704 41.47 25.6191C41.177 25.486 41.0463 25.1393 41.1794 24.8463C41.3125 24.5521 41.658 24.4226 41.9521 24.5556C43.8035 25.3961 45 27.2521 45 29.2844V31.0272C45 33.8918 42.6712 36.2206 39.8089 36.2206Z" fill="#E94F35"/>
<path d="M14.4408 21.963C12.4809 21.963 11.1618 20.6673 11.1035 20.6089C10.8758 20.3813 10.8758 20.0113 11.1035 19.7836C11.3311 19.556 11.6988 19.556 11.9276 19.7825C11.9474 19.8011 13.0996 20.9089 14.6941 20.7864C16.4054 20.6544 17.7595 19.7276 17.7735 19.7183C18.0385 19.535 18.4015 19.5992 18.5859 19.8642C18.7704 20.128 18.7062 20.491 18.4424 20.6755C18.377 20.721 16.8233 21.7937 14.784 21.9513C14.6673 21.9583 14.5529 21.963 14.4408 21.963Z" fill="#E94F35"/>
<path d="M30.5592 21.963C30.4471 21.963 30.3339 21.9584 30.2171 21.9502C28.1778 21.7938 26.6241 20.7199 26.5588 20.6743C26.295 20.4899 26.2308 20.1257 26.4152 19.8619C26.5996 19.5981 26.9638 19.5339 27.2276 19.7183C27.2405 19.7265 28.5946 20.6545 30.3059 20.7864C31.9226 20.9113 33.0596 19.7953 33.0701 19.7837C33.2977 19.556 33.6677 19.556 33.8953 19.7837C34.123 20.0113 34.123 20.3813 33.8953 20.609C33.8382 20.6673 32.5191 21.963 30.5592 21.963Z" fill="#E94F35"/>
<path d="M22.4999 26.5704C20.5435 26.5704 19.7217 24.9992 19.5606 24.168C19.4999 23.8517 19.7065 23.5459 20.0229 23.484C20.3381 23.4233 20.6439 23.6287 20.7058 23.9427C20.7373 24.0945 21.0525 25.4031 22.4999 25.4031C23.9859 25.4031 24.2789 23.8353 24.2906 23.7688C24.3466 23.4513 24.6501 23.2389 24.9665 23.296C25.284 23.3521 25.4953 23.6544 25.4392 23.9719C25.2816 24.8696 24.4634 26.5704 22.4999 26.5704Z" fill="#E94F35"/>
<path d="M29.8471 26.2354C30.2423 26.2354 30.5627 25.9986 30.5627 25.7066C30.5627 25.4145 30.2423 25.1778 29.8471 25.1778C29.4519 25.1778 29.1315 25.4145 29.1315 25.7066C29.1315 25.9986 29.4519 26.2354 29.8471 26.2354Z" fill="#E94F35"/>
<path d="M31.7765 24.928C32.1717 24.928 32.4921 24.6912 32.4921 24.3992C32.4921 24.1071 32.1717 23.8704 31.7765 23.8704C31.3813 23.8704 31.061 24.1071 31.061 24.3992C31.061 24.6912 31.3813 24.928 31.7765 24.928Z" fill="#E94F35"/>
<path d="M33.5824 26.2354C33.9776 26.2354 34.298 25.9986 34.298 25.7066C34.298 25.4145 33.9776 25.1778 33.5824 25.1778C33.1873 25.1778 32.8669 25.4145 32.8669 25.7066C32.8669 25.9986 33.1873 26.2354 33.5824 26.2354Z" fill="#E94F35"/>
<path d="M11.4175 26.2354C11.8127 26.2354 12.133 25.9986 12.133 25.7066C12.133 25.4145 11.8127 25.1778 11.4175 25.1778C11.0223 25.1778 10.7019 25.4145 10.7019 25.7066C10.7019 25.9986 11.0223 26.2354 11.4175 26.2354Z" fill="#E94F35"/>
<path d="M13.3471 24.928C13.7423 24.928 14.0627 24.6912 14.0627 24.3992C14.0627 24.1071 13.7423 23.8704 13.3471 23.8704C12.9519 23.8704 12.6315 24.1071 12.6315 24.3992C12.6315 24.6912 12.9519 24.928 13.3471 24.928Z" fill="#E94F35"/>
<path d="M15.153 26.2354C15.5482 26.2354 15.8686 25.9986 15.8686 25.7066C15.8686 25.4145 15.5482 25.1778 15.153 25.1778C14.7578 25.1778 14.4374 25.4145 14.4374 25.7066C14.4374 25.9986 14.7578 26.2354 15.153 26.2354Z" fill="#E94F35"/>
<path d="M9.42486 33.2941C9.22758 33.2941 9.03965 33.1949 8.93109 33.0221L5.31941 27.2941C5.14782 27.021 5.22953 26.6614 5.50152 26.4887C5.77467 26.3171 6.1342 26.3988 6.30696 26.6708L9.68517 32.0299L17.6217 29.784C17.9323 29.6964 18.2544 29.8762 18.342 30.1867C18.4295 30.4972 18.2498 30.8194 17.9393 30.907L9.58245 33.2719C9.53109 33.2871 9.47739 33.2941 9.42486 33.2941Z" fill="#FBBB21"/>
<path d="M15.8381 10.3354C15.5159 10.3354 15.2544 10.0739 15.2544 9.75175V3.65019C15.2544 3.40856 15.4038 3.19144 15.6291 3.10506C15.8544 3.01868 16.1112 3.08054 16.2723 3.26031L18.9816 6.28249L21.9373 1.35759C22.04 1.18716 22.2209 1.08093 22.4194 1.07393C22.6167 1.06926 22.8058 1.16264 22.9178 1.32607L26.3626 6.32685L28.731 3.75175C28.8945 3.57432 29.1489 3.51595 29.3731 3.6035C29.5972 3.69105 29.7443 3.907 29.7443 4.14747V9.62685C29.7443 9.94902 29.4828 10.2105 29.1606 10.2105C28.8384 10.2105 28.577 9.94902 28.577 9.62685V5.64513L26.7256 7.65642C26.6054 7.78716 26.4326 7.85603 26.2552 7.84319C26.0777 7.83035 25.9167 7.73813 25.8151 7.59221L22.4696 2.73502L19.5735 7.5607C19.4777 7.71945 19.3131 7.82334 19.1287 7.84202C18.9443 7.85953 18.7622 7.78832 18.6384 7.65058L16.4194 5.17471V9.75058C16.4217 10.0739 16.1602 10.3354 15.8381 10.3354Z" fill="#FBBB21"/>
<path d="M29.1409 4.72179C29.9145 4.72179 30.5417 4.25822 30.5417 3.68638C30.5417 3.11454 29.9145 2.65097 29.1409 2.65097C28.3673 2.65097 27.7401 3.11454 27.7401 3.68638C27.7401 4.25822 28.3673 4.72179 29.1409 4.72179Z" fill="#FBBB21"/>
<path d="M22.5034 2.07082C23.277 2.07082 23.9042 1.60725 23.9042 1.03541C23.9042 0.463568 23.277 0 22.5034 0C21.7297 0 21.1026 0.463568 21.1026 1.03541C21.1026 1.60725 21.7297 2.07082 22.5034 2.07082Z" fill="#FBBB21"/>
<path d="M15.9035 4.13814C16.6772 4.13814 17.3043 3.67457 17.3043 3.10273C17.3043 2.53089 16.6772 2.06732 15.9035 2.06732C15.1299 2.06732 14.5027 2.53089 14.5027 3.10273C14.5027 3.67457 15.1299 4.13814 15.9035 4.13814Z" fill="#FBBB21"/>
<path d="M23.3978 31.123C23.0791 31.123 22.7569 31.1207 22.4277 31.1148C7.12423 30.8638 2.96158 25.5035 2.79232 25.2759C2.71761 25.1755 2.67676 25.0529 2.67676 24.9269C2.67676 24.7681 2.70477 20.9802 5.13045 17.0557C6.55691 14.7479 8.51684 12.8778 10.9589 11.4957C13.9845 9.78446 17.755 8.82843 22.1663 8.65334C28.3472 8.40937 33.2791 9.94906 36.8231 13.2315C42.0013 18.0257 42.3118 24.7459 42.3223 25.0296C42.327 25.1592 42.2884 25.2864 42.2137 25.3915C42.0421 25.6319 37.9297 31.123 23.3978 31.123ZM3.85224 24.7203C4.19543 25.0903 5.27754 26.121 7.51528 27.1623C10.0985 28.3635 14.7865 29.8226 22.4476 29.9487C30.1052 30.0736 34.82 28.6378 37.4277 27.4098C39.69 26.3452 40.7931 25.2514 41.141 24.8603C41.0663 23.9743 40.6484 20.4934 38.5414 17.1339C35.3102 11.9814 29.8145 9.52065 22.2118 9.82065C14.5682 10.1218 9.15536 12.7635 6.12384 17.6697C4.18143 20.8133 3.89427 23.9043 3.85224 24.7203Z" fill="#E94F35"/>
</svg>
