<?xml version="1.0" encoding="utf-8"?>
<!-- Generator: Adobe Illustrator 23.0.0, SVG Export Plug-In . SVG Version: 6.00 Build 0)  -->
<svg version="1.1" id="Capa_1" xmlns="http://www.w3.org/2000/svg" xmlns:xlink="http://www.w3.org/1999/xlink" x="0px" y="0px"
	 viewBox="0 0 958 429" style="enable-background:new 0 0 958 429;" xml:space="preserve">
<style type="text/css">
	.st0{fill:#E94F35;}
	.st1{fill:#FBBB21;}
</style>
<g>
	<g>
		<g>
			<path class="st0" d="M310.62,401H103.38c-37.46,0-67.93-25.93-67.93-57.8c0-6.71,1.34-13.29,3.97-19.55
				c1.07-2.55,4-3.74,6.55-2.67c2.54,1.07,3.74,4,2.67,6.55c-2.12,5.02-3.19,10.29-3.19,15.66c0,26.36,25.99,47.8,57.93,47.8h207.23
				c31.94,0,57.93-21.45,57.93-47.8c0-5.37-1.07-10.64-3.19-15.66c-1.07-2.54,0.12-5.48,2.67-6.55c2.54-1.07,5.48,0.12,6.55,2.67
				c2.64,6.26,3.97,12.83,3.97,19.54C378.55,375.07,348.07,401,310.62,401z"/>
		</g>
		<g>
			<path class="st0" d="M355.28,330.59H58.72c-24.52,0-44.47-19.95-44.47-44.47v-14.93c0-17.77,10.54-33.8,26.86-40.85
				c2.54-1.09,5.48,0.07,6.57,2.61c1.09,2.54-0.07,5.48-2.61,6.57c-12.65,5.46-20.82,17.89-20.82,31.66v14.93
				c0,19.01,15.46,34.47,34.47,34.47h296.56c19.01,0,34.47-15.46,34.47-34.47v-14.93c0-13.5-7.94-25.83-20.24-31.41
				c-2.51-1.14-3.63-4.11-2.49-6.62c1.14-2.52,4.1-3.63,6.62-2.49c15.86,7.2,26.11,23.1,26.11,40.51v14.93
				C399.75,310.64,379.8,330.59,355.28,330.59z"/>
		</g>
		<g>
			<path class="st0" d="M137.96,208.45c-16.79,0-28.09-11.1-28.59-11.6c-1.95-1.95-1.95-5.12,0-7.07c1.95-1.95,5.1-1.95,7.06-0.01
				c0.17,0.16,10.04,9.65,23.7,8.6c14.66-1.13,26.26-9.07,26.38-9.15c2.27-1.57,5.38-1.02,6.96,1.25c1.58,2.26,1.03,5.37-1.23,6.95
				c-0.56,0.39-13.87,9.58-31.34,10.93C139.9,208.41,138.92,208.45,137.96,208.45z"/>
		</g>
		<g>
			<path class="st0" d="M276.04,208.45c-0.96,0-1.93-0.04-2.93-0.11c-17.47-1.34-30.78-10.54-31.34-10.93
				c-2.26-1.58-2.81-4.7-1.23-6.96c1.58-2.26,4.7-2.81,6.96-1.23c0.11,0.07,11.71,8.02,26.37,9.15c13.85,1.07,23.59-8.49,23.68-8.59
				c1.95-1.95,5.12-1.95,7.07,0c1.95,1.95,1.95,5.12,0,7.07C304.13,197.35,292.83,208.45,276.04,208.45z"/>
		</g>
		<g>
			<path class="st0" d="M207,247.92c-16.76,0-23.8-13.46-25.18-20.58c-0.52-2.71,1.25-5.33,3.96-5.86c2.7-0.52,5.32,1.24,5.85,3.93
				c0.27,1.3,2.97,12.51,15.37,12.51c12.73,0,15.24-13.43,15.34-14c0.48-2.72,3.08-4.54,5.79-4.05c2.72,0.48,4.53,3.07,4.05,5.79
				C230.83,233.35,223.82,247.92,207,247.92z"/>
		</g>
		<g>
			<g>
				<ellipse class="st0" cx="269.94" cy="240.52" rx="6.13" ry="4.53"/>
			</g>
			<g>
				<ellipse class="st0" cx="286.47" cy="229.32" rx="6.13" ry="4.53"/>
			</g>
			<g>
				<ellipse class="st0" cx="301.94" cy="240.52" rx="6.13" ry="4.53"/>
			</g>
		</g>
		<g>
			<g>
				<ellipse class="st0" cx="112.06" cy="240.52" rx="6.13" ry="4.53"/>
			</g>
			<g>
				<ellipse class="st0" cx="128.59" cy="229.32" rx="6.13" ry="4.53"/>
			</g>
			<g>
				<ellipse class="st0" cx="144.06" cy="240.52" rx="6.13" ry="4.53"/>
			</g>
		</g>
		<g>
			<path class="st1" d="M94.99,305.52c-1.69,0-3.3-0.85-4.23-2.33l-30.94-49.07c-1.47-2.34-0.77-5.42,1.56-6.9
				c2.34-1.47,5.42-0.77,6.9,1.56l28.94,45.91l67.99-19.24c2.66-0.75,5.42,0.79,6.17,3.45c0.75,2.66-0.79,5.42-3.45,6.17
				l-71.59,20.26C95.9,305.46,95.44,305.52,94.99,305.52z"/>
		</g>
		<g>
			<g>
				<path class="st1" d="M149.93,108.84c-2.76,0-5-2.24-5-5V51.57c0-2.07,1.28-3.93,3.21-4.67s4.13-0.21,5.51,1.33l23.21,25.89
					l25.32-42.19c0.88-1.46,2.43-2.37,4.13-2.43c1.69-0.04,3.31,0.76,4.27,2.16l29.51,42.84l20.29-22.06
					c1.4-1.52,3.58-2.02,5.5-1.27c1.92,0.75,3.18,2.6,3.18,4.66v46.94c0,2.76-2.24,5-5,5s-5-2.24-5-5V68.66l-15.86,17.23
					c-1.03,1.12-2.51,1.71-4.03,1.6c-1.52-0.11-2.9-0.9-3.77-2.15l-28.66-41.61l-24.81,41.34c-0.82,1.36-2.23,2.25-3.81,2.41
					c-1.58,0.15-3.14-0.46-4.2-1.64l-19.01-21.21v39.2C154.93,106.6,152.69,108.84,149.93,108.84z"/>
			</g>
			<g>
				<ellipse class="st1" cx="263.89" cy="51.88" rx="12" ry="8.87"/>
			</g>
			<g>
				<ellipse class="st1" cx="207.03" cy="29.17" rx="12" ry="8.87"/>
			</g>
			<g>
				<ellipse class="st1" cx="150.49" cy="46.88" rx="12" ry="8.87"/>
			</g>
		</g>
		<g>
			<path class="st0" d="M214.69,286.92c-2.73,0-5.49-0.02-8.31-0.07c-131.1-2.15-166.76-48.07-168.21-50.02
				c-0.64-0.86-0.99-1.91-0.99-2.99c0-1.36,0.24-33.81,21.02-67.43c12.22-19.77,29.01-35.79,49.93-47.63
				c25.92-14.66,58.22-22.85,96.01-24.35c52.95-2.09,95.2,11.1,125.56,39.22c44.36,41.07,47.02,98.64,47.11,101.07
				c0.04,1.11-0.29,2.2-0.93,3.1C374.41,239.88,339.18,286.92,214.69,286.92z M47.25,232.07c2.94,3.17,12.21,12,31.38,20.92
				c22.13,10.29,62.29,22.79,127.92,23.87c65.6,1.07,105.99-11.23,128.33-21.75c19.38-9.12,28.83-18.49,31.81-21.84
				c-0.64-7.59-4.22-37.41-22.27-66.19c-27.68-44.14-74.76-65.22-139.89-62.65c-65.48,2.58-111.85,25.21-137.82,67.24
				C50.07,198.6,47.61,225.08,47.25,232.07z M42.18,233.85L42.18,233.85L42.18,233.85z"/>
		</g>
	</g>
	<g>
		<path class="st0" d="M435.62,141.49c1.55-1.57,3.47-2.35,5.76-2.35h36.27c4.88,0,9.17,0.95,12.85,2.83
			c3.68,1.89,6.7,4.24,9.05,7.05c2.35,2.81,4.1,5.85,5.25,9.12c1.15,3.27,1.7,6.31,1.66,9.12c-0.05,2.81-0.71,5.16-2,7.05
			c-1.29,1.89-3.18,2.83-5.67,2.83c-1.11,0-2.21-0.18-3.32-0.55c-2.4-0.74-4.13-1.94-5.18-3.59c-1.06-1.66-1.5-3.41-1.31-5.25
			c0.09-1.47-0.05-2.92-0.41-4.35c-0.37-1.43-0.99-2.69-1.87-3.8c-0.88-1.11-2.07-1.98-3.59-2.63c-1.52-0.64-3.34-0.97-5.46-0.97
			h-27.5v63.02h34.41c2.49,0,4.58-0.55,6.29-1.66s2.97-2.46,3.8-4.08c0.83-1.61,1.27-3.36,1.31-5.25c0.05-1.89-0.37-3.64-1.24-5.25
			c-0.88-1.61-2.16-2.97-3.87-4.08c-1.71-1.11-3.8-1.66-6.29-1.66h-17.14c-2.67,0-4.7-0.85-6.08-2.56c-1.38-1.7-2.07-3.57-2.07-5.6
			c0-2.03,0.69-3.89,2.07-5.6c1.38-1.7,3.41-2.56,6.08-2.56h13.27c7.83,0,14.19,1.36,19.07,4.08c4.88,2.72,8.45,6.13,10.71,10.23
			c2.26,4.1,3.27,8.52,3.04,13.27c-0.23,4.75-1.52,9.17-3.87,13.27c-2.35,4.1-5.67,7.51-9.95,10.23c-4.29,2.72-9.33,4.08-15.13,4.08
			h-43.18c-2.28,0-4.2-0.81-5.76-2.42c-1.55-1.61-2.33-3.52-2.33-5.74v-80.43C433.29,144.99,434.07,143.05,435.62,141.49z"/>
		<path class="st0" d="M563.19,237.81c-5.71,0-11.1-1.06-16.17-3.18c-5.07-2.12-9.47-5.02-13.2-8.71
			c-3.73-3.68-6.68-7.99-8.84-12.92c-2.17-4.93-3.25-10.2-3.25-15.82v-49.61c0-2.76,0.89-4.86,2.67-6.29
			c1.78-1.43,3.72-2.14,5.83-2.14c2.1,0,4.02,0.69,5.76,2.07c1.74,1.38,2.6,3.5,2.6,6.36v49.61c0,3.23,0.62,6.29,1.87,9.19
			c1.25,2.9,2.96,5.46,5.13,7.67c2.17,2.21,4.76,3.96,7.76,5.25c3,1.29,6.26,1.93,9.77,1.93c3.42,0,6.63-0.62,9.63-1.87
			c3-1.24,5.61-2.95,7.83-5.11c2.22-2.16,3.97-4.72,5.27-7.67c1.29-2.95,1.94-6.08,1.94-9.4v-49.61c0-2.85,0.88-4.98,2.63-6.36
			c1.75-1.38,3.68-2.07,5.8-2.07c2.12,0,4.05,0.69,5.8,2.07c1.75,1.38,2.63,3.5,2.63,6.36v49.61c0,5.71-1.11,11.03-3.32,15.96
			c-2.21,4.93-5.18,9.24-8.91,12.92c-3.73,3.69-8.13,6.56-13.2,8.64C574.16,236.77,568.81,237.81,563.19,237.81z"/>
		<path class="st0" d="M615.71,147.29c0-2.3,0.78-4.24,2.35-5.8c1.57-1.57,3.5-2.35,5.8-2.35h28.61c4.79,0,9.35,0.9,13.68,2.69
			c4.33,1.8,8.11,4.26,11.33,7.39c3.22,3.13,5.78,6.82,7.67,11.06c1.89,4.24,2.83,8.75,2.83,13.54c0,4.42-0.81,8.57-2.42,12.44
			c-1.61,3.87-3.85,7.26-6.7,10.16c-2.86,2.9-6.2,5.25-10.02,7.05c-3.82,1.8-7.95,2.93-12.37,3.39c2.21,3.32,4.63,5.83,7.26,7.53
			c2.63,1.71,5.25,2.93,7.88,3.66c2.63,0.74,5.18,1.2,7.67,1.38c2.49,0.19,4.67,0.51,6.56,0.97c1.89,0.46,3.41,1.2,4.56,2.21
			c1.15,1.01,1.73,2.72,1.73,5.11c0,2.86-1.15,4.97-3.46,6.36c-2.3,1.38-5.25,2.07-8.84,2.07c-3.5,0-7.39-0.64-11.68-1.93
			c-4.28-1.29-8.55-3.16-12.78-5.6c-4.24-2.44-8.18-5.48-11.82-9.12c-3.64-3.64-6.56-7.81-8.78-12.51h-2.21
			c0,5.44,0.02,9.7,0.07,12.78c0.04,3.09,0.02,5.51-0.07,7.25c-0.09,1.75-0.3,3.04-0.62,3.87c-0.32,0.83-0.9,1.66-1.73,2.49
			c-1.84,1.66-3.82,2.49-5.94,2.49c-2.21,0-4.19-0.76-5.94-2.28c-1.75-1.52-2.63-3.57-2.63-6.15V147.29z M652.47,190.13
			c4.33,0,7.88-0.85,10.64-2.56c2.76-1.7,4.81-3.8,6.15-6.29c1.33-2.49,1.93-5.23,1.8-8.22c-0.14-2.99-0.92-5.74-2.35-8.22
			c-1.43-2.49-3.5-4.58-6.22-6.29c-2.72-1.7-6.06-2.56-10.02-2.56h-19.9v34.13H652.47z"/>
		<path class="st0" d="M696.27,187.37c0-6.82,1.29-13.13,3.87-18.93c2.58-5.8,6.13-10.85,10.64-15.13
			c4.51-4.28,9.81-7.67,15.89-10.16c6.08-2.49,12.58-3.82,19.49-4.01h18.1c2.67,0,4.7,0.86,6.08,2.58c1.38,1.72,2.07,3.62,2.07,5.71
			s-0.67,3.99-2,5.71c-1.34,1.72-3.39,2.58-6.15,2.58h-16.58c-7.56,0-13.77,1.63-18.66,4.9c-4.88,3.26-8.48,7.35-10.78,12.27
			c-2.3,4.92-3.34,10.23-3.11,15.93c0.23,5.7,1.66,11.01,4.28,15.93c2.63,4.92,6.4,9.01,11.33,12.27
			c4.93,3.26,10.99,4.89,18.17,4.89h6.63v-25.57c-6.08,0.28-12.12-0.14-18.1-1.24c-2.49-0.46-4.17-1.59-5.04-3.39
			c-0.88-1.8-1.13-3.61-0.76-5.46c0.37-1.84,1.33-3.41,2.9-4.7c1.57-1.29,3.55-1.66,5.94-1.11c3.59,0.92,7.42,1.38,11.47,1.38
			c3.5,0,7-0.37,10.5-1.11c2.58-0.55,4.88-0.02,6.91,1.59c2.03,1.61,3.04,3.71,3.04,6.29v39.11c0,2.21-0.78,4.12-2.35,5.74
			c-1.57,1.61-3.5,2.42-5.8,2.42h-16.72c-7.19,0-13.91-1.24-20.18-3.73c-6.27-2.49-11.7-5.89-16.31-10.23
			c-4.61-4.33-8.22-9.47-10.85-15.41C697.59,200.56,696.27,194.19,696.27,187.37z"/>
		<path class="st0" d="M783.61,147.29c0-2.3,0.78-4.24,2.35-5.8c1.57-1.57,3.5-2.35,5.8-2.35h49.89c2.76,0,4.84,0.88,6.22,2.63
			c1.38,1.75,2.07,3.69,2.07,5.8c0,2.12-0.69,4.06-2.07,5.8c-1.38,1.75-3.45,2.63-6.22,2.63h-41.18v23.77h32.75
			c2.76,0,4.84,0.87,6.22,2.6c1.38,1.74,2.07,3.63,2.07,5.69s-0.69,3.95-2.07,5.69s-3.46,2.6-6.22,2.6h-32.75v22.66h41.18
			c2.76,0,4.84,0.88,6.22,2.63c1.38,1.75,2.07,3.69,2.07,5.8c0,2.12-0.69,4.06-2.07,5.8c-1.38,1.75-3.45,2.63-6.22,2.63h-49.89
			c-2.3,0-4.24-0.81-5.8-2.42c-1.57-1.61-2.35-3.52-2.35-5.74V147.29z"/>
		<path class="st0" d="M859.62,147.29c0-2.3,0.78-4.24,2.35-5.8c1.57-1.57,3.5-2.35,5.8-2.35h28.61c4.79,0,9.35,0.9,13.68,2.69
			c4.33,1.8,8.11,4.26,11.33,7.39c3.22,3.13,5.78,6.82,7.67,11.06c1.89,4.24,2.83,8.75,2.83,13.54c0,4.42-0.81,8.57-2.42,12.44
			c-1.61,3.87-3.85,7.26-6.7,10.16c-2.86,2.9-6.2,5.25-10.02,7.05c-3.82,1.8-7.95,2.93-12.37,3.39c2.21,3.32,4.63,5.83,7.26,7.53
			c2.63,1.71,5.25,2.93,7.88,3.66c2.63,0.74,5.18,1.2,7.67,1.38c2.49,0.19,4.67,0.51,6.56,0.97c1.89,0.46,3.41,1.2,4.56,2.21
			c1.15,1.01,1.73,2.72,1.73,5.11c0,2.86-1.15,4.97-3.46,6.36c-2.3,1.38-5.25,2.07-8.84,2.07c-3.5,0-7.39-0.64-11.68-1.93
			c-4.28-1.29-8.55-3.16-12.78-5.6c-4.24-2.44-8.18-5.48-11.82-9.12c-3.64-3.64-6.56-7.81-8.78-12.51h-2.21
			c0,5.44,0.02,9.7,0.07,12.78c0.04,3.09,0.02,5.51-0.07,7.25c-0.09,1.75-0.3,3.04-0.62,3.87c-0.32,0.83-0.9,1.66-1.73,2.49
			c-1.84,1.66-3.82,2.49-5.94,2.49c-2.21,0-4.19-0.76-5.94-2.28c-1.75-1.52-2.63-3.57-2.63-6.15V147.29z M896.38,190.13
			c4.33,0,7.88-0.85,10.64-2.56c2.76-1.7,4.81-3.8,6.15-6.29c1.33-2.49,1.93-5.23,1.8-8.22c-0.14-2.99-0.92-5.74-2.35-8.22
			c-1.43-2.49-3.5-4.58-6.22-6.29c-2.72-1.7-6.06-2.56-10.02-2.56h-19.9v34.13H896.38z"/>
	</g>
	<g>
		<path class="st1" d="M535.9,354.4c-4.05,3.32-9.58,4.97-16.58,4.97c-5.44,0-11.17-1.06-17.21-3.18
			c-6.04-2.12-11.61-5.27-16.72-9.47c-5.11-4.19-9.35-9.47-12.71-15.82c-3.36-6.36-5.04-13.77-5.04-22.25
			c0-6.82,1.31-13.27,3.94-19.35c2.63-6.08,6.22-11.42,10.78-16.03c4.56-4.61,9.97-8.24,16.24-10.92
			c6.26-2.67,12.99-4.01,20.18-4.01c7.28,0,14.07,1.36,20.38,4.08c6.31,2.72,11.75,6.38,16.31,10.99
			c4.56,4.61,8.15,9.95,10.78,16.03c2.63,6.08,3.94,12.49,3.94,19.21c0,4.24-0.32,7.81-0.97,10.71c-0.65,2.9-1.5,5.23-2.56,6.98
			c-1.06,1.75-2.23,3.02-3.52,3.8c-1.29,0.78-2.58,1.17-3.87,1.17c-1.29,0-2.51-0.32-3.66-0.97c-1.15-0.64-2.14-1.5-2.97-2.56
			c-0.83-1.06-1.38-2.28-1.66-3.66c-0.28-1.38-0.14-2.81,0.41-4.28c1.94-5.34,2.42-10.76,1.45-16.24
			c-0.97-5.48-2.97-10.43-6.01-14.86c-3.04-4.42-7-8.02-11.88-10.78c-4.88-2.76-10.27-4.15-16.17-4.15c-4.79,0-9.26,0.97-13.41,2.9
			s-7.76,4.49-10.85,7.67c-3.09,3.18-5.53,6.89-7.32,11.13c-1.8,4.24-2.69,8.62-2.69,13.13c0,5.25,0.99,10,2.97,14.23
			c1.98,4.24,4.56,7.86,7.74,10.85c3.18,2.99,6.72,5.32,10.64,6.98c3.92,1.66,7.76,2.49,11.54,2.49c1.93,0,3.82-0.21,5.67-0.62
			c1.84-0.41,3.55-1.13,5.11-2.14c2.67-1.57,5.5-2.74,8.5-3.52c2.99-0.78,6.01-1.17,9.05-1.17c4.15,0,8.18,0.69,12.09,2.07
			c3.91,1.38,7.39,3.41,10.43,6.08c1.66,1.38,2.6,2.9,2.83,4.56c0.23,1.66-0.02,3.2-0.76,4.63c-0.74,1.43-1.82,2.63-3.25,3.59
			c-1.43,0.97-2.93,1.45-4.49,1.45c-1.93,0-3.73-0.83-5.39-2.49c-1.47-1.57-3.2-2.79-5.18-3.66c-1.98-0.87-4.03-1.31-6.15-1.31
			c-1.75,0-3.48,0.3-5.18,0.9C538.96,352.17,537.37,353.12,535.9,354.4z"/>
		<path class="st1" d="M615.36,359.93c-5.71,0-11.1-1.06-16.17-3.18c-5.07-2.12-9.47-5.02-13.2-8.71
			c-3.73-3.68-6.68-7.99-8.84-12.92c-2.17-4.93-3.25-10.2-3.25-15.82v-49.61c0-2.76,0.89-4.86,2.67-6.29
			c1.78-1.43,3.72-2.14,5.83-2.14c2.1,0,4.02,0.69,5.76,2.07c1.74,1.38,2.6,3.5,2.6,6.36v49.61c0,3.23,0.62,6.29,1.87,9.19
			s2.96,5.46,5.13,7.67c2.17,2.21,4.76,3.96,7.76,5.25c3,1.29,6.26,1.93,9.77,1.93c3.42,0,6.63-0.62,9.63-1.87
			c3-1.24,5.61-2.95,7.83-5.11c2.22-2.16,3.97-4.72,5.27-7.67c1.29-2.95,1.94-6.08,1.94-9.4v-49.61c0-2.85,0.88-4.97,2.63-6.36
			c1.75-1.38,3.68-2.07,5.8-2.07c2.12,0,4.05,0.69,5.8,2.07c1.75,1.38,2.63,3.5,2.63,6.36v49.61c0,5.71-1.11,11.03-3.32,15.96
			c-2.21,4.93-5.18,9.24-8.91,12.92c-3.73,3.69-8.13,6.56-13.2,8.64C626.33,358.9,620.98,359.93,615.36,359.93z"/>
		<path class="st1" d="M667.88,269.41c0-2.3,0.78-4.24,2.35-5.8c1.57-1.57,3.5-2.35,5.8-2.35h49.89c2.76,0,4.84,0.88,6.22,2.63
			c1.38,1.75,2.07,3.69,2.07,5.8c0,2.12-0.69,4.05-2.07,5.8c-1.38,1.75-3.45,2.63-6.22,2.63h-41.18v23.77h32.75
			c2.76,0,4.84,0.87,6.22,2.6s2.07,3.63,2.07,5.69s-0.69,3.95-2.07,5.69s-3.46,2.6-6.22,2.6h-32.75v22.66h41.18
			c2.76,0,4.84,0.88,6.22,2.63c1.38,1.75,2.07,3.69,2.07,5.8c0,2.12-0.69,4.05-2.07,5.8c-1.38,1.75-3.45,2.63-6.22,2.63h-49.89
			c-2.3,0-4.24-0.81-5.8-2.42c-1.57-1.61-2.35-3.52-2.35-5.74V269.41z"/>
		<path class="st1" d="M743.88,269.41c0-2.3,0.78-4.24,2.35-5.8c1.57-1.57,3.5-2.35,5.8-2.35h49.89c2.76,0,4.84,0.88,6.22,2.63
			c1.38,1.75,2.07,3.69,2.07,5.8c0,2.12-0.69,4.05-2.07,5.8c-1.38,1.75-3.45,2.63-6.22,2.63h-41.18v23.77h32.75
			c2.76,0,4.84,0.87,6.22,2.6s2.07,3.63,2.07,5.69s-0.69,3.95-2.07,5.69s-3.46,2.6-6.22,2.6h-32.75v22.66h41.18
			c2.76,0,4.84,0.88,6.22,2.63c1.38,1.75,2.07,3.69,2.07,5.8c0,2.12-0.69,4.05-2.07,5.8c-1.38,1.75-3.45,2.63-6.22,2.63h-49.89
			c-2.3,0-4.24-0.81-5.8-2.42c-1.57-1.61-2.35-3.52-2.35-5.74V269.41z"/>
		<path class="st1" d="M834.08,355.72c-1.78,1.43-3.73,2.14-5.83,2.14c-2.1,0-4.02-0.69-5.76-2.07s-2.6-3.5-2.6-6.36v-77.39
			c0-2.67,0.64-4.63,1.94-5.87c1.29-1.24,2.99-1.87,5.11-1.87c2.39,0,5.18,0.69,8.36,2.07s6.5,3.39,9.95,6.01
			c3.46,2.63,6.91,5.8,10.36,9.54s6.68,7.95,9.67,12.64c2.99,4.7,5.6,9.79,7.81,15.27c2.21,5.48,3.78,11.31,4.7,17.48v-57.77
			c0-2.85,0.89-4.97,2.67-6.36c1.78-1.38,3.72-2.07,5.83-2.07c2.1,0,4.02,0.69,5.76,2.07s2.6,3.5,2.6,6.36v80.15
			c0,2.21-0.81,4.13-2.42,5.74c-1.61,1.61-3.52,2.42-5.74,2.42h-10.36c-2.03,0-3.82-0.67-5.39-2c-1.57-1.33-2.44-3.06-2.63-5.18
			c-0.83-6.63-2.28-13.29-4.35-19.97c-2.07-6.68-4.51-12.94-7.32-18.79c-2.81-5.85-5.92-11.06-9.33-15.62
			c-3.41-4.56-6.86-8.04-10.36-10.43v63.57C836.75,352.19,835.86,354.29,834.08,355.72z"/>
	</g>
	<g>
		<g>
			<circle class="st1" cx="924.59" cy="309.5" r="11.5"/>
		</g>
		<g>
			<circle class="st1" cx="440.59" cy="309.5" r="11.5"/>
		</g>
	</g>
</g>
</svg>
